<!--?xml version="1.0" encoding="utf-8"?-->
<!-- Generator: Adobe Illustrator 18.1.1, SVG Export Plug-In . SVG Version: 6.00 Build 0)  -->

<svg version="1.1" id="_x32_" xmlns="http://www.w3.org/2000/svg" xmlns:xlink="http://www.w3.org/1999/xlink" x="0px" y="0px" viewBox="0 0 512 512" style="width: 256px; height: 256px; opacity: 1;" xml:space="preserve">
<style type="text/css">
	.st0{fill:#4B4B4B;}
</style>
<g>
	<polygon class="st0" points="62.455,159.454 86.372,159.454 86.372,86.367 159.449,86.367 159.449,62.459 62.455,62.459 	" style="fill: rgb(14,148,235);"></polygon>
	<polygon class="st0" points="425.638,159.454 449.546,159.454 449.546,62.459 352.551,62.459 352.551,86.367 425.628,86.367 	" style="fill: rgb(14,148,235);"></polygon>
	<polygon class="st0" points="425.628,425.633 352.551,425.633 352.551,449.541 449.546,449.541 449.546,352.556 425.628,352.556
		" style="fill: rgb(14,148,235);"></polygon>
	<polygon class="st0" points="86.372,352.556 62.455,352.556 62.455,449.541 159.449,449.541 159.449,425.633 86.372,425.633 	" style="fill: rgb(14,148,235);"></polygon>
	<rect x="244.041" class="st0" width="23.917" height="113.385" style="fill: rgb(14,148,235);"></rect>
	<rect x="244.041" y="398.615" class="st0" width="23.917" height="113.385" style="fill: rgb(14,148,235);"></rect>
	<rect x="398.62" y="244.046" class="st0" width="113.375" height="23.909" style="fill: rgb(14,148,235);"></rect>
	<rect x="0.005" y="244.046" class="st0" width="113.384" height="23.909" style="fill: rgb(14,148,235);"></rect>
	<polygon class="st0" points="265.306,199.303 246.703,199.303 246.703,246.698 199.308,246.698 199.308,265.302 246.703,265.302
		246.703,312.697 265.306,312.697 265.306,265.302 312.692,265.302 312.692,246.698 265.306,246.698 	" style="fill: rgb(14,148,235);"></polygon>
</g>
</svg>
