<!--?xml version="1.0" encoding="utf-8"?-->
<!-- Generator: Adobe Illustrator 18.1.1, SVG Export Plug-In . SVG Version: 6.00 Build 0)  -->

<svg version="1.1" id="_x32_" xmlns="http://www.w3.org/2000/svg" xmlns:xlink="http://www.w3.org/1999/xlink" x="0px" y="0px" viewBox="0 0 512 512" style="width: 256px; height: 256px; opacity: 1;" xml:space="preserve">
<style type="text/css">
	.st0{fill:#4B4B4B;}
</style>
<g>
	<path class="st0" d="M265.394,179.642v-27.998h-18.788v27.998c-35.003,4.265-62.699,31.969-66.964,66.964h-27.997v18.787h27.997
		c4.265,34.995,31.961,62.7,66.964,66.964v27.989h18.788v-27.989c35.003-4.265,62.7-31.97,66.964-66.964h27.998v-18.787h-27.998
		C328.093,211.611,300.397,183.907,265.394,179.642z M246.606,308.635c-11.003-1.961-20.824-7.215-28.442-14.799
		c-7.6-7.618-12.846-17.44-14.799-28.442h43.241V308.635z M246.606,246.606h-43.241c1.953-11.004,7.198-20.833,14.799-28.442
		c7.618-7.593,17.439-12.855,28.442-14.799V246.606z M293.836,293.836c-7.617,7.584-17.431,12.838-28.442,14.799v-43.241h43.241
		C306.69,276.396,301.436,286.218,293.836,293.836z M265.394,246.606v-43.241c11.011,1.944,20.825,7.206,28.442,14.799
		c7.6,7.609,12.854,17.438,14.799,28.442H265.394z" style="fill: rgb(255, 255, 255);"></path>
	<path class="st0" d="M457.605,244.252C451.739,142.065,369.934,60.26,267.748,54.395V0h-23.489v54.395
		C142.066,60.26,60.261,142.058,54.395,244.252H0v23.497h54.395c5.866,102.178,87.671,183.991,189.864,189.857V512h23.489v-54.395
		c102.185-5.866,183.991-87.679,189.857-189.857H512v-23.497H457.605z M434.058,267.748c-2.9,44.616-22.115,84.705-51.856,114.454
		c-29.749,29.724-69.838,48.956-114.454,51.856v-23.053h-23.489v23.053c-44.624-2.9-84.721-22.132-114.462-51.856
		c-29.741-29.749-48.948-69.838-51.856-114.454h23.053v-23.497H77.942c2.908-44.623,22.114-84.705,51.856-114.462
		c29.74-29.733,69.822-48.948,114.462-51.847v23.053h23.489V77.942c44.616,2.899,84.713,22.123,114.462,51.847
		c29.732,29.758,48.947,69.839,51.847,114.462h-23.054v23.497H434.058z" style="fill: rgb(255, 255, 255);"></path>
</g>
</svg>
